<?xml version="1.0" encoding="UTF-8" standalone="no"?>
<svg
   id="svg28"
   style="clip-rule:evenodd;fill-rule:evenodd;stroke-linejoin:round;stroke-miterlimit:1.41421"
   xml:space="preserve"
   version="1.1"
   viewBox="0 0 19.999999 20"
   height="20"
   width="20"
   xmlns:xlink="http://www.w3.org/1999/xlink"
   xmlns="http://www.w3.org/2000/svg"
   xmlns:svg="http://www.w3.org/2000/svg"
   xmlns:rdf="http://www.w3.org/1999/02/22-rdf-syntax-ns#"
   xmlns:cc="http://creativecommons.org/ns#"
   xmlns:dc="http://purl.org/dc/elements/1.1/"><title
     id="title4510">DAMASK_mesh logo</title><metadata
     id="metadata32"><rdf:RDF><cc:Work
         rdf:about=""><dc:title>DAMASK_mesh logo</dc:title><dc:format>image/svg+xml</dc:format><dc:type
           rdf:resource="http://purl.org/dc/dcmitype/StillImage" /></cc:Work></rdf:RDF></metadata><g
     transform="translate(-35.751371,66.691982)"
     id="g4572"><g
       style="fill:#4480cf;fill-opacity:1"
       id="DAMASK"
       transform="matrix(1.0000038,0,0,1,33.685933,-47.736904)"><g
   aria-label="DAMASK_mesh"
   style="font-weight:700;font-size:30px;font-family:Calibri-Bold, Calibri, sans-serif;fill:#4480cf;fill-opacity:1"
   id="text21"><g
     id="g6"
     transform="matrix(0,0.68010351,0.68009835,0,21.638677,-21.370143)"
     style="stroke:#e59545;stroke-opacity:1"><path
       style="font-weight:700;font-size:30px;font-family:Calibri-Bold, Calibri, sans-serif;clip-rule:evenodd;fill:none;fill-opacity:1;fill-rule:evenodd;stroke:#e59545;stroke-width:0.343098;stroke-linecap:round;stroke-linejoin:round;stroke-miterlimit:1.41421;stroke-dasharray:none;stroke-opacity:1"
       d="m 22.577698,-1.6889605 h 8.338976 V -15.565971 h -4.634592 v 8.9389025 H 22.58075 v 4.937926"
       id="path1" /><path
       style="font-weight:700;font-size:30px;font-family:Calibri-Bold, Calibri, sans-serif;clip-rule:evenodd;fill:none;fill-opacity:1;fill-rule:evenodd;stroke:#e59545;stroke-width:0.200141;stroke-linecap:round;stroke-linejoin:round;stroke-miterlimit:1.41421;stroke-dasharray:none;stroke-opacity:1"
       d="m 22.640514,-6.5787015 2.046858,2.528142 -2.0963,2.347954"
       id="path5" /><path
       style="font-weight:700;font-size:30px;font-family:Calibri-Bold, Calibri, sans-serif;clip-rule:evenodd;fill:none;fill-opacity:1;fill-rule:evenodd;stroke:#e59545;stroke-width:0.200141;stroke-linecap:round;stroke-linejoin:round;stroke-miterlimit:1.41421;stroke-dasharray:none;stroke-opacity:1"
       d="m 24.728835,-4.0651335 -0.277396,-2.507084 2.74926,1.433138 -0.913708,-1.485792 1.637734,-0.189226 -0.724546,1.676483 z"
       id="path6" /><path
       style="font-weight:700;font-size:30px;font-family:Calibri-Bold, Calibri, sans-serif;clip-rule:evenodd;fill:none;fill-opacity:1;fill-rule:evenodd;stroke:#e59545;stroke-width:0.200141;stroke-linecap:round;stroke-linejoin:round;stroke-miterlimit:1.41421;stroke-dasharray:none;stroke-opacity:1"
       d="m 24.710548,-4.0300585 2.474352,2.320421 0.0139,-3.434964 3.71203,-0.726876 -2.996053,-0.947984 -1.605072,-1.9643006 4.597889,-1.9022769 -2.988671,3.8651465 2.97e-4,0.0019"
       id="path7" /><path
       style="font-weight:700;font-size:30px;font-family:Calibri-Bold, Calibri, sans-serif;clip-rule:evenodd;fill:none;fill-opacity:1;fill-rule:evenodd;stroke:#e59545;stroke-width:0.200141;stroke-linecap:round;stroke-linejoin:round;stroke-miterlimit:1.41421;stroke-dasharray:none;stroke-opacity:1"
       d="m 27.196233,-5.1325555 3.699271,3.38846"
       id="path8" /><path
       style="font-weight:700;font-size:30px;font-family:Calibri-Bold, Calibri, sans-serif;clip-rule:evenodd;fill:none;fill-opacity:1;fill-rule:evenodd;stroke:#e59545;stroke-width:0.200141;stroke-linecap:round;stroke-linejoin:round;stroke-miterlimit:1.41421;stroke-dasharray:none;stroke-opacity:1"
       d="m 30.904111,-10.676033 -4.590335,-2.124291 2.556989,-2.701702 z"
       id="path9" /></g><path
     d="m 17.094373,-10.027006 q 0,2.068278 -0.546116,3.543959 -0.534498,1.464061 -1.545391,2.393624 -1.010896,0.929563 -2.463333,1.371105 -1.440816,0.429923 -3.4393698,0.429923 H 5.5097406 q -0.3834436,0 -0.6506913,-0.220771 -0.2556288,-0.232391 -0.2556288,-0.74365 v -13.106841 q 0,-0.511258 0.2556288,-0.73203 0.2672477,-0.232391 0.6506913,-0.232391 h 3.8576703 q 2.0101731,0 3.4045111,0.476402 1.40596,0.46478 2.358757,1.394343 0.964418,0.917943 1.464057,2.277429 0.499637,1.359486 0.499637,3.148898 z m -3.1605,0.10458 q 0,-1.069001 -0.255631,-1.986943 -0.244008,-0.917944 -0.801744,-1.591879 -0.546115,-0.673931 -1.417578,-1.045757 -0.859842,-0.383444 -2.2658009,-0.383444 H 7.6477266 v 10.225195 h 1.5918705 q 1.2549059,0 2.1147479,-0.325347 0.859843,-0.325347 1.429198,-0.976041 0.580974,-0.662313 0.859842,-1.638355 0.290488,-0.976041 0.290488,-2.277429 z"
     style="font-weight:bold;font-size:40px;line-height:1.25;font-family:Calibri;-inkscape-font-specification:'Calibri Bold';white-space:pre;shape-inside:url(#rect2498);stroke-width:0.594919"
     id="path16298" /></g>
</g></g></svg>
